<svg width="48" height="48" viewBox="0 0 48 48" fill="none" xmlns="http://www.w3.org/2000/svg">
<path d="M33.438 39.504L32.158 29.256C31.9766 27.8044 31.2712 26.4692 30.1743 25.5012C29.0775 24.5333 27.6648 23.9994 26.202 24H21.794C20.3318 24.0004 18.9202 24.5347 17.8242 25.5026C16.7282 26.4704 16.0233 27.8051 15.842 29.256L14.56 39.504C14.4896 40.067 14.5399 40.6386 14.7074 41.1807C14.8748 41.7228 15.1557 42.2231 15.5314 42.6483C15.9071 43.0736 16.3689 43.414 16.8863 43.6471C17.4036 43.8801 17.9646 44.0004 18.532 44H29.468C30.0352 44.0001 30.596 43.8796 31.1131 43.6464C31.6302 43.4133 32.0918 43.0728 32.4672 42.6476C32.8427 42.2224 33.1234 41.7222 33.2908 41.1802C33.4582 40.6382 33.5083 40.0669 33.438 39.504V39.504Z" stroke="#EB5757" stroke-width="5.33333" stroke-linecap="round" stroke-linejoin="round"/>
<path d="M24 16C27.3137 16 30 13.3137 30 10C30 6.68629 27.3137 4 24 4C20.6863 4 18 6.68629 18 10C18 13.3137 20.6863 16 24 16Z" stroke="#EB5757" stroke-width="5.33333"/>
<path d="M8 22C10.2091 22 12 20.2091 12 18C12 15.7909 10.2091 14 8 14C5.79086 14 4 15.7909 4 18C4 20.2091 5.79086 22 8 22Z" stroke="#EB5757" stroke-width="5.33333"/>
<path d="M40 22C42.2091 22 44 20.2091 44 18C44 15.7909 42.2091 14 40 14C37.7909 14 36 15.7909 36 18C36 20.2091 37.7909 22 40 22Z" stroke="#EB5757" stroke-width="5.33333"/>
<path d="M8 28H7.388C6.44112 27.9999 5.52491 28.3357 4.80235 28.9476C4.0798 29.5596 3.59776 30.408 3.442 31.342L2.776 35.342C2.68042 35.9151 2.71084 36.5021 2.86514 37.0623C3.01943 37.6224 3.2939 38.1422 3.66945 38.5855C4.04501 39.0288 4.51263 39.385 5.03979 39.6293C5.56695 39.8736 6.14099 40.0001 6.722 40H14" stroke="#EB5757" stroke-width="5.33333" stroke-linecap="round" stroke-linejoin="round"/>
<path d="M40 28H40.612C41.5589 27.9999 42.4751 28.3357 43.1976 28.9476C43.9202 29.5596 44.4022 30.408 44.558 31.342L45.224 35.342C45.3196 35.9151 45.2892 36.5021 45.1349 37.0623C44.9806 37.6224 44.7061 38.1422 44.3305 38.5855C43.955 39.0288 43.4874 39.385 42.9602 39.6293C42.433 39.8736 41.859 40.0001 41.278 40H34" stroke="#EB5757" stroke-width="5.33333" stroke-linecap="round" stroke-linejoin="round"/>
</svg>
