<svg xmlns="http://www.w3.org/2000/svg" width="48" height="48" fill="none" viewBox="0 0 48 48"><path fill="#EB5757" d="M42.5672 16.5516L30.6656 14.8219L25.3453 4.03595C25.2 3.74063 24.9609 3.50157 24.6656 3.35626C23.925 2.99063 23.025 3.29532 22.6547 4.03595L17.3344 14.8219L5.43281 16.5516C5.10469 16.5984 4.80469 16.7531 4.575 16.9875C4.29732 17.2729 4.14431 17.6569 4.14958 18.055C4.15485 18.4532 4.31798 18.833 4.60313 19.1109L13.2141 27.5063L11.1797 39.3609C11.132 39.6367 11.1625 39.9203 11.2678 40.1796C11.3731 40.4389 11.5489 40.6636 11.7753 40.828C12.0018 40.9925 12.2698 41.0902 12.5489 41.1101C12.8281 41.13 13.1072 41.0713 13.3547 40.9406L24 35.3438L34.6453 40.9406C34.9359 41.0953 35.2734 41.1469 35.5969 41.0906C36.4125 40.95 36.9609 40.1766 36.8203 39.3609L34.7859 27.5063L43.3969 19.1109C43.6313 18.8813 43.7859 18.5813 43.8328 18.2531C43.9594 17.4328 43.3875 16.6734 42.5672 16.5516V16.5516Z"/></svg>