<svg xmlns="http://www.w3.org/2000/svg" width="48" height="48" fill="none" viewBox="0 0 48 48"><g clip-path="url(#clip0)"><path fill="#EB5757" d="M0.960002 5.76001C0.641742 5.76001 0.336518 5.88644 0.111474 6.11148C-0.11357 6.33653 -0.239998 6.64175 -0.239998 6.96001V41.04C-0.239998 41.3583 -0.11357 41.6635 0.111474 41.8885C0.336518 42.1136 0.641742 42.24 0.960002 42.24H33.0624C32.6429 41.688 32.2243 41.1355 31.8029 40.584C31.2787 39.8107 30.5174 39.1488 30.2942 38.209C27.2078 39.4829 23.6616 39.601 20.4946 38.5435C20.425 38.521 20.3568 38.4931 20.2877 38.4696C19.9243 38.8248 19.5326 39.444 19.4707 39.84H14.9074C15.2501 38.6789 14.5224 36.8659 15.2107 35.6842C15.2654 35.6698 15.3317 35.5771 15.3619 35.4816C15.2842 35.4086 15.2054 35.3376 15.1296 35.2632C14.4547 35.4686 14.185 35.977 13.8096 36.4229C14.0146 37.3944 12.5352 37.1645 12.6845 38.1557C13.715 38.9549 11.7331 38.3458 11.1437 38.4096C10.5182 38.4163 8.68848 37.7616 9.32352 39.1008C9.22416 39.4685 9.31584 39.6941 9.49872 39.84H9.2184C9.17472 39.4195 8.38272 39.3571 8.07744 39.1507C7.56336 39.0259 6.94944 38.9635 6.41712 38.7264C6.28032 39.1066 5.04576 39.5414 4.77552 39.84H2.16V22.3051C2.52816 22.5519 3.35376 22.4539 2.22864 21.9211H2.16V16.3944C2.3784 16.284 2.5344 16.249 2.5248 16.4338C3.06576 16.2514 3.30144 14.9347 4.23744 15.4738C4.82112 15.5597 5.78688 16.4645 5.3016 16.5778C5.67984 17.5013 5.94816 16.9066 6.41232 18.0072C6.09456 19.5125 7.31136 20.628 7.97904 21.5875C8.77872 21.9197 9.09504 22.9536 10.3949 22.9939C10.5715 23.1485 10.7981 23.2886 11.0342 23.423C11.099 22.9267 11.1907 22.4342 11.3064 21.9475C11.2752 21.9403 11.245 21.936 11.2114 21.925C9.96096 23.0784 9.70464 21.0816 10.9258 21.0034C11.0074 20.9981 11.0952 21.0024 11.1898 21.0154C11.3314 20.9986 11.449 21.0154 11.5483 21.0504C11.9493 19.7358 12.5435 18.4881 13.3114 17.3482C13.7237 16.7328 14.1866 16.1529 14.6952 15.6144C14.4427 15.192 14.1845 14.9563 13.8797 15.5078C13.8566 14.6894 11.6438 13.8317 13.272 14.617C14.1259 15.3528 14.4058 14.4893 14.5406 13.8998C15.2726 13.1366 13.7904 12.876 14.0606 12.3773C13.6114 11.7038 12.9461 11.0141 12.2626 10.597C10.9368 10.7506 10.4722 10.4707 12.2448 10.4698C12.4046 9.64177 12.6701 9.05521 12.853 8.35825C12.661 8.30305 12.4603 8.31169 12.2626 8.31121C11.4144 8.19745 10.9109 8.52529 10.9282 9.17281C10.2912 9.12193 10.8634 8.03617 9.88128 8.36785C8.39232 8.34433 10.1923 8.84737 10.0541 8.91985C9.88368 9.30193 8.81088 9.06385 8.93712 9.45121C8.4456 8.54209 8.22192 9.88465 7.83936 8.96497C7.60896 8.74417 8.80416 9.18289 8.532 8.37793C7.93008 8.14753 7.71456 8.55073 7.2456 8.71537C5.84592 9.49009 7.48992 10.2187 8.2008 10.477C9.27216 10.1914 9.2712 9.83041 10.0162 10.2274C10.8514 10.6906 9.1728 10.3651 9.22416 11.0779C9.12816 10.6349 9.00816 10.3675 8.48976 10.9354C7.79856 11.0602 7.48992 10.1102 6.97392 10.177C5.79792 10.0171 6.23712 12.6619 7.20576 11.7614C7.79184 12.7757 6.45696 12.0274 6.06096 11.9141C5.16672 12.913 4.20336 11.8882 3.13584 11.8469C2.79408 11.6194 2.45904 11.6165 2.16 11.7322V8.16001H14.747C13.8494 8.18449 13.0478 8.30305 13.3742 8.94865C13.3214 10.1938 14.9323 9.20497 15.1642 10.3311C15.8333 11.1178 14.7662 12.7906 15.9235 12.4968C15.4978 13.0147 15.551 13.8398 15.8832 14.4902C17.1119 13.4589 18.5055 12.6418 20.0054 12.073C20.0318 11.9251 20.0112 11.7552 19.9229 11.5546C19.7726 10.8014 20.4715 10.561 20.2267 9.72577C20.556 9.09697 20.3006 8.43169 19.7362 8.16001H45.84V11.5574C45.7655 11.5255 45.6891 11.4986 45.611 11.4768C44.9347 12.0898 45.4814 12.1478 45.84 12.0101V12.5458C45.0403 12.096 44.1619 12.0466 43.309 12.2338C42.9216 11.5603 41.5502 11.5762 41.099 10.9699C40.3042 10.0176 41.3414 10.3018 42.035 10.2283C41.8382 9.63313 40.6574 9.35089 40.1587 9.44929C39.2578 9.94273 40.632 10.3853 40.4933 11.0477C40.4933 11.5291 39.9062 11.5325 39.3941 11.5061C39.601 10.9963 38.4134 10.3694 37.9426 10.7842C37.0512 10.5144 36.7114 10.6728 37.2994 9.74449C37.0939 9.03073 36.2448 9.01729 35.8642 8.52193C35.3779 9.55297 34.5672 9.24049 33.6984 9.86833C33.3504 10.3771 32.6256 10.8341 32.5896 11.1701C32.051 11.423 31.512 10.1323 31.1342 11.2757C30.7915 12.2434 31.1534 12.7123 29.9971 11.9203C28.8005 10.645 32.401 9.55249 31.0627 9.00961C29.952 9.33361 29.2843 10.1165 29.0635 11.2286C28.944 11.4816 28.9982 11.6578 29.1245 11.8003C33.3408 13.0579 36.8299 16.4486 38.2483 20.6083C38.2704 20.3578 38.3122 20.1168 38.3962 19.9406C38.7509 19.6699 38.4696 20.9798 39.2026 20.2349C38.6626 21.3941 40.56 20.3885 40.8168 19.9099C40.4405 18.9653 42.1704 18.5203 42.1301 18.3423C41.4931 17.6741 41.855 18.3389 41.1523 18.492C40.9195 18.1819 41.5987 16.4818 40.6949 16.6378C39.3451 16.2902 41.843 15.2962 42.5174 15.6619C42.8246 14.5253 43.2662 15.4306 42.5074 15.9533C42.2184 16.9618 42.3566 18.3374 43.2067 16.9896C43.5888 16.6176 43.4938 15.648 43.991 15.4791C44.6592 15.1642 45.8515 14.9179 45.8203 13.9445C45.827 13.9426 45.8333 13.943 45.84 13.9416V39.84H43.9397C44.3515 39.2698 44.8963 38.2944 44.3194 37.9406C43.4501 37.7904 42.8006 36.7421 41.7499 36.7858C41.2757 36.2395 40.1837 35.963 39.8899 35.8565C39.5962 35.7499 39.0864 36.3658 38.5642 36.0936C38.407 36.0682 38.2465 36.0711 38.0904 36.1022C39.6619 38.1422 41.2186 40.1933 42.781 42.24H47.04C47.3583 42.24 47.6635 42.1136 47.8885 41.8885C48.1136 41.6635 48.24 41.3583 48.24 41.04V6.96001C48.24 6.64175 48.1136 6.33653 47.8885 6.11148C47.6635 5.88644 47.3583 5.76001 47.04 5.76001H0.960002ZM24.3312 8.31361C23.5584 8.69425 24.9288 10.2096 24.9667 8.76289C25.1083 8.97409 26.0582 9.18721 25.7477 8.50609C25.0574 8.09953 25.1621 8.56705 24.3307 8.31409L24.3312 8.31361ZM35.4101 8.31457C34.5763 8.72065 36.1397 8.72833 35.4101 8.31457V8.31457ZM8.92368 8.45233C8.29968 8.91601 9.83952 9.37489 9.00528 8.47681L8.92368 8.45233ZM14.0333 8.72737C14.1893 8.87713 13.8792 8.82385 14.0333 8.72737V8.72737ZM8.0064 9.32065C8.07984 9.40561 7.968 9.32689 8.0064 9.32065V9.32065ZM10.1438 9.51841C10.896 9.64897 10.0862 9.82561 10.1438 9.51841V9.51841ZM11.1974 9.60481C11.9126 9.55921 11.46 9.78241 11.1974 9.60481V9.60481ZM9.09744 9.63649C9.56256 9.68449 9.03792 9.85201 9.09744 9.63649V9.63649ZM10.5864 10.3123C11.0568 10.4208 10.355 10.4587 10.5864 10.3123V10.3123ZM10.9181 11.0606C10.6349 11.964 11.9246 13.187 10.9238 12.1574C10.6488 11.7456 10.5058 11.351 10.9181 11.0606ZM9.23904 11.1518C9.65136 11.8406 10.2792 12.0245 9.7536 12.2616C9.40464 12.0926 9.324 11.5661 9.23904 11.1514V11.1518ZM15.709 11.8464C15.767 11.8853 15.5525 11.856 15.709 11.8464V11.8464ZM5.97648 12.0638C5.92272 12.2818 5.90208 12.0672 5.97648 12.0638V12.0638ZM9.6936 12.4162C9.66 12.8702 9.47424 12.408 9.6936 12.4162V12.4162ZM12.4526 12.419C12.2731 13.307 12.9854 13.2504 12.9374 13.3397C12.349 13.5989 12.4896 14.6664 12.0394 13.8518C11.7552 13.7194 12.1853 12.5472 12.3787 12.4445L12.4526 12.419ZM9.55968 12.42C9.62256 12.4344 9.55536 12.6278 9.55968 12.42V12.42ZM44.281 12.4997C44.3002 12.5323 44.1974 12.5813 44.281 12.4997V12.4997ZM9.59424 12.6159C9.9216 12.9586 9.15552 12.9279 9.59424 12.6159V12.6159ZM24.8477 13.0877C22.2302 13.1059 19.6895 13.9741 17.6083 15.5616C12.2851 19.6152 11.2493 27.2568 15.3029 32.58C19.0973 37.5629 26.0261 38.7648 31.2629 35.5742L32.2632 36.888C32.0664 37.3459 32.0846 37.7837 32.3136 38.0851L39.5712 47.6155C40.0032 48.1824 41.0462 48.1147 41.9006 47.4639C42.755 46.8135 43.0973 45.8261 42.6658 45.2587L35.4082 35.7283C35.1787 35.4269 34.7616 35.2925 34.2677 35.3606L33.2674 34.0474C37.7357 29.8474 38.4206 22.849 34.6267 17.8661C32.5997 15.2045 29.6755 13.6157 26.593 13.1981C26.0146 13.1198 25.4313 13.0829 24.8477 13.0877V13.0877ZM11.221 14.2915C11.521 15.0038 12.6797 14.5858 12.2261 15.5568C12.731 16.032 12.1459 17.7072 11.9496 16.2797C10.693 16.2734 10.093 15.0197 11.148 14.3616L11.221 14.2915ZM12.3158 14.4096C12.6998 14.736 11.711 14.5915 12.3158 14.4096V14.4096ZM42.4733 15.287C42.5069 15.263 42.5904 15.4354 42.4733 15.287V15.287ZM25.331 15.7771C26.724 15.8302 28.0878 16.1919 29.324 16.836C30.5602 17.4802 31.6381 18.3907 32.4797 19.5019C33.2337 20.4877 33.7856 21.6127 34.1037 22.8124C34.4217 24.012 34.4997 25.2626 34.3332 26.4925C34.1667 27.7224 33.7589 28.9072 33.1332 29.9791C32.5076 31.0509 31.6764 31.9886 30.6874 32.7384C29.7016 33.4925 28.5765 34.0444 27.3768 34.3626C26.1772 34.6807 24.9265 34.7587 23.6965 34.5922C22.4666 34.4256 21.2817 34.0178 20.2098 33.3921C19.1379 32.7664 18.2002 31.9352 17.4504 30.9461C16.6964 29.9603 16.1446 28.8352 15.8265 27.6356C15.5085 26.4359 15.4305 25.1853 15.5971 23.9554C15.7637 22.7256 16.1715 21.5407 16.7972 20.4689C17.4229 19.397 18.2541 18.4593 19.2432 17.7096C20.9853 16.3757 23.1386 15.6922 25.331 15.7771V15.7771ZM43.8533 16.2715C43.0997 16.895 44.7581 16.7808 43.8533 16.2715V16.2715ZM44.7509 16.7909C43.9166 17.1984 45.48 17.1989 44.7509 16.7909V16.7909ZM45.2942 16.981C44.5502 17.6002 46.0526 17.2747 45.2942 16.981V16.981ZM45.2645 17.1154C45.3058 17.1149 45.239 17.1591 45.2645 17.1154V17.1154ZM45.3355 17.1926C45.3581 17.2291 45.2755 17.2003 45.3355 17.1926V17.1926ZM25.0128 17.6928C23.9635 17.6741 22.9277 17.9088 21.9725 18.3302C22.0224 18.3912 22.0939 18.4498 22.1986 18.5026C21.2386 18.1906 20.9592 19.4035 21.3634 19.9493L22.0128 20.0026L22.5557 19.7635C22.9066 19.3987 22.9939 19.4616 23.1072 18.9091L23.3189 18.9365L23.4869 18.8664L23.8694 19.0555C24.3283 19.2351 24.3499 19.6219 24.1963 19.7352C23.9789 19.8691 24.2352 19.8888 24.2563 19.9719C24.3648 19.9407 24.4282 19.847 24.4963 19.7971L24.6192 19.753C25.0675 19.4587 24.7546 19.3618 24.443 18.9648L24.6082 19.007C24.8496 19.2806 24.9917 19.5902 25.1347 19.919C25.151 19.932 25.1659 19.9488 25.1846 19.9546C25.2931 19.9906 25.4462 19.9786 25.5773 19.9426C25.7069 19.907 25.7155 19.6598 25.6934 19.4232C25.8782 20.2661 27.6907 20.0155 26.6122 20.5296C25.9906 20.5435 25.0027 20.2027 24.8208 20.6333C24.4186 20.4509 24.2131 20.3314 24.1315 20.2378C23.8838 20.1446 23.171 19.8749 23.1456 19.8749C23.1154 19.8749 22.2082 20.04 22.2082 20.04L21.4594 20.3242C21.216 21.1085 20.832 20.689 20.7014 21.2971C20.5992 21.6859 19.7194 22.5259 20.1802 23.1874C20.5915 25.1006 22.9766 23.8267 23.5325 24.7455C23.2714 25.3114 24.563 26.388 23.8402 27.3149C24.181 28.6613 25.0968 30.912 26.5704 28.9958C26.9592 27.8486 27.7963 27.2285 27.7666 26.0904C27.3216 24.9696 29.941 24.1387 28.8931 23.231C28.6421 23.2608 28.6133 23.315 28.4141 23.3813C27.9955 23.3654 27.8875 23.028 27.745 22.8158C27.6361 22.6611 27.5398 22.4978 27.457 22.3277C27.7234 22.7405 27.9984 23.0909 28.3843 23.3064C29.052 23.1566 29.8176 22.6627 30.1291 22.3003C30.1214 20.8877 32.0203 22.3531 31.9819 23.4149C32.0995 23.701 32.2488 23.8997 32.3986 24.0158C32.2921 23.3368 32.0894 22.6764 31.7966 22.0546C31.2643 20.8862 30.4118 19.8831 29.376 19.1323C29.3568 19.1621 29.3088 19.164 29.3184 19.092C29.1783 18.9928 29.035 18.8982 28.8888 18.8083C28.9046 18.875 28.9238 18.9427 28.9459 19.0114C28.883 18.9178 28.8168 18.8227 28.7621 18.731C27.6312 18.0648 26.3342 17.6827 25.0133 17.6923L25.0128 17.6928ZM40.6306 17.7562C40.9786 18.7478 39.42 21.0461 39.1934 19.5374C39.3533 18.7915 40.6325 18.9043 40.6306 17.7566V17.7562ZM11.4106 18.0178C11.4806 18.0096 11.3995 18.0538 11.4106 18.0178V18.0178ZM12.1502 18.3667C12.2899 18.4829 11.9813 18.4541 12.1502 18.3667V18.3667ZM26.5637 18.3984C26.951 18.7248 28.1395 19.1568 26.8814 18.8122C26.2267 19.1112 26.0242 18.9197 26.5637 18.3984ZM23.5694 18.9792C23.485 19.0051 23.5565 19.1803 23.5037 19.2355C23.8637 19.4117 23.6621 19.069 23.7154 19.0128C23.6424 18.9782 23.5973 18.9701 23.5694 18.9792ZM29.0573 19.3368C29.1686 19.6262 29.2426 19.8111 28.9565 19.452C28.9801 19.4405 29.0012 19.4244 29.0185 19.4046C29.0359 19.3848 29.049 19.3618 29.0573 19.3368V19.3368ZM23.603 19.3728C23.4619 19.3574 23.387 19.452 23.3866 19.584C23.7586 19.7861 23.7202 19.4525 23.7658 19.427C23.7151 19.3991 23.6598 19.3807 23.6026 19.3728H23.603ZM29.3506 21.4287C29.5627 21.4373 29.1475 21.7359 29.2186 21.4455C29.2776 21.4325 29.3203 21.4272 29.3506 21.4287ZM43.9718 23.3064C43.2806 24.0408 44.7955 24.1699 43.9718 23.3064V23.3064ZM43.9238 23.4206C43.9949 23.413 43.9109 23.4696 43.9238 23.4206V23.4206ZM43.9834 23.5258C43.9901 23.5752 43.9114 23.5138 43.9834 23.5258V23.5258ZM44.4859 23.6218C43.8163 24.2045 45.2942 23.9923 44.4859 23.6218V23.6218ZM44.5579 23.7874C44.6088 23.7787 44.5483 23.8579 44.5579 23.7874V23.7874ZM44.4634 23.8128C44.5075 23.8723 44.4245 23.8464 44.4634 23.8128V23.8128ZM38.9928 24.5674C39.0048 24.8669 39.0072 25.1659 39.0005 25.465C39.551 25.5528 40.2408 25.5278 40.2538 26.137C41.2406 26.1797 40.152 27.6211 40.116 26.2867C39.714 26.2288 39.3039 26.2983 38.9434 26.4854C38.8432 27.5329 38.6288 28.5662 38.304 29.567C39.1104 29.3112 39.9331 29.3362 40.4189 30.12C41.6981 30.1152 40.6099 30.9874 41.5166 31.1654C41.903 30.3763 41.3131 30.4757 42.0379 29.8325C42.7411 28.9334 42.2808 27.7723 41.5795 27.2813C41.4336 26.7254 40.8523 26.425 41.1259 26.0458C41.6587 26.7682 42.4138 26.2272 41.7835 25.8365C42.2486 25.4021 43.9104 26.9558 42.9773 25.7606C42.5165 25.6752 41.8834 24.7224 41.7398 25.3358C41.6986 25.8446 40.429 24.5635 39.9605 25.0877C39.8251 24.6154 39.1627 24.9005 39.1253 25.1112C39.3288 24.7944 39.2006 24.6307 38.9928 24.5674V24.5674ZM41.435 24.9778C40.7472 25.3685 42.0562 25.355 41.435 24.9778V24.9778ZM23.4662 25.0114C23.5214 25.1362 23.4504 25.032 23.4662 25.0114V25.0114ZM17.4408 25.0699C17.4265 25.7364 17.5006 26.4019 17.6611 27.049C18.2131 26.2128 18.1915 25.4275 17.4408 25.0699ZM41.3995 25.093C41.4408 25.1227 41.3486 25.1045 41.3995 25.093V25.093ZM41.8646 25.1506C42.0888 25.309 41.64 25.309 41.8646 25.1506V25.1506ZM41.8646 25.1554C41.6602 25.3023 42.0686 25.3023 41.8646 25.1554V25.1554ZM41.4456 25.1971C41.4533 25.2456 41.3746 25.1885 41.4456 25.1971V25.1971ZM38.9966 25.7184C38.9918 25.8336 38.9818 25.9488 38.9741 26.064C39.1291 25.8893 39.1963 25.7088 38.9966 25.7184ZM28.056 26.2162C27.5011 26.521 28.6498 26.6602 28.1698 26.3026L28.1491 26.2512L28.056 26.2162ZM28.705 26.3016C28.1568 26.6443 27.3062 28.2782 28.4856 28.3296C28.7698 27.9917 29.4902 26.485 28.705 26.3016ZM43.5734 27.3422C43.1342 28.2086 44.8488 27.8621 43.5734 27.3422V27.3422ZM29.5834 27.4574C28.8701 27.936 30.275 27.8755 29.5834 27.4574V27.4574ZM44.7182 29.4331C45.1243 30.3523 43.7774 30.9029 43.8792 31.7563C44.5704 32.0894 44.927 30.8357 45.4138 30.4522C45.9893 29.9491 44.9606 29.8003 44.7182 29.4331ZM12.7944 32.2603C12.8731 32.7662 13.1102 33.2559 13.5336 33.4051C13.2689 33.0357 13.0222 32.6536 12.7944 32.2603V32.2603Z"/></g><defs><clipPath id="clip0"><rect width="48" height="48" fill="#fff"/></clipPath></defs></svg>